<?xml version="1.0" standalone="no"?>
<!DOCTYPE svg PUBLIC "-//W3C//DTD SVG 20010904//EN"
 "http://www.w3.org/TR/2001/REC-SVG-20010904/DTD/svg10.dtd">
<svg version="1.0" xmlns="http://www.w3.org/2000/svg"
 width="200.000000pt" height="200.000000pt" viewBox="0 0 200.000000 200.000000"
 preserveAspectRatio="xMidYMid meet">
<metadata>
Created by potrace 1.11, written by Peter Selinger 2001-2013
</metadata>
<g transform="translate(0.000000,200.000000) scale(0.100000,-0.100000)"
fill="#000000" stroke="none">
<path d="M1345 1855 c-38 -13 -146 -48 -240 -78 -93 -30 -235 -76 -315 -102
l-145 -47 -60 -67 c-33 -37 -98 -109 -145 -161 -47 -51 -94 -103 -105 -116
-80 -89 -151 -166 -189 -209 -25 -27 -44 -51 -42 -52 7 -7 238 0 391 13 28 2
124 6 215 9 254 10 300 12 306 17 2 3 -11 29 -31 58 -19 28 -35 53 -35 55 0 1
-27 44 -61 94 -33 51 -59 95 -56 97 6 6 316 86 354 92 17 2 38 11 46 21 14 15
185 345 200 384 8 22 -3 21 -88 -8z"/>
<path d="M1543 1735 c-22 -39 -57 -101 -77 -138 -20 -37 -45 -83 -56 -102 -18
-32 -39 -72 -127 -233 -18 -34 -42 -78 -53 -97 -88 -156 -92 -165 -73 -166 23
-1 113 -1 236 1 54 1 100 1 102 -1 2 -2 -5 -28 -15 -57 -10 -28 -17 -52 -16
-52 2 0 -18 -64 -44 -142 l-47 -142 27 -45 c15 -25 60 -100 100 -166 40 -66
79 -132 87 -147 8 -16 18 -28 23 -28 6 0 20 41 35 110 2 8 18 71 35 140 17 69
33 136 36 150 10 49 95 374 98 378 4 4 0 20 -73 277 -90 314 -103 358 -130
445 l-27 84 -41 -69z"/>
<path d="M173 902 c-29 -2 -53 -6 -53 -11 0 -7 99 -106 250 -251 31 -30 118
-115 192 -188 137 -134 154 -145 257 -167 9 -2 54 -13 101 -25 47 -12 112 -28
145 -36 33 -7 67 -16 75 -18 13 -4 156 -40 204 -51 10 -2 33 -9 50 -14 17 -5
46 -12 64 -15 41 -7 42 12 1 74 -16 25 -33 54 -39 65 -6 11 -18 32 -28 47 -9
14 -45 73 -80 130 -34 57 -66 110 -72 118 -22 36 -107 176 -113 190 -4 8 -13
24 -20 35 -7 11 -25 42 -40 68 -15 26 -31 47 -36 47 -4 0 -14 -12 -21 -27 -8
-16 -22 -39 -31 -53 -9 -14 -38 -65 -64 -115 -26 -49 -51 -94 -55 -99 -9 -9
-28 8 -154 149 -151 168 -111 149 -309 150 -95 0 -196 -1 -224 -3z"/>
</g>
</svg>
