<svg width="220" height="195" viewBox="0 0 220 195" fill="none" xmlns="http://www.w3.org/2000/svg">
<g filter="url(#filter0_d)">
<rect x="35" y="25" width="150" height="125" rx="10" fill="url(#paint0_linear)"/>
</g>
<mask id="mask0" mask-type="alpha" maskUnits="userSpaceOnUse" x="35" y="25" width="150" height="125">
<rect x="35" y="25" width="150" height="125" rx="10" fill="url(#paint1_linear)"/>
</mask>
<g mask="url(#mask0)">
<path opacity="0.15" d="M52.6321 88.9413C37.0508 74.0057 25.0391 76.8466 18.0617 80.4186C16.6946 98.6478 14.7805 137.095 18.0617 145.049C22.1633 154.993 59.0774 159.254 84.2727 164.225C104.429 168.203 192.28 172.275 230.757 164.225C234.859 133.686 240.601 38.3731 230.757 37.805C218.452 37.0947 189.715 54.4801 169.766 94.963C143.691 147.875 133.438 76.1364 104.434 67.9687C87.8429 63.2967 68.2408 103.903 52.6321 88.9413Z" fill="white"/>
<path opacity="0.15" d="M52.5781 97.4641C39.9116 90.8958 28.8039 96.9906 20.4055 97.4641C19.0383 115.693 17.1242 154.14 20.4055 162.095C24.5071 172.038 61.4211 176.299 86.6164 181.271C106.773 185.248 194.624 170.144 233.101 162.095C237.202 131.555 242.945 55.4186 233.101 54.8504C220.796 54.1402 192.059 71.5256 172.109 112.008C146.035 164.92 104.727 152.136 90.0781 133.67C78.2727 118.788 68.9844 105.972 52.5781 97.4641Z" fill="white"/>
</g>
<path d="M50.6328 62H53.4189L54.3594 58.9238H58.833L59.7734 62H62.5684L58.1562 49.3174H55.0361L50.6328 62ZM56.5215 51.8486H56.6797L58.2266 56.9375H54.9658L56.5215 51.8486ZM64.0588 62H66.6252V56.4014C66.6252 55.0918 67.3459 54.2393 68.5324 54.2393C69.7453 54.2393 70.3078 54.96 70.3078 56.3223V62H72.8742V55.7422C72.8742 53.4307 71.7141 52.1123 69.5608 52.1123C68.1809 52.1123 67.2229 52.7715 66.7834 53.8174H66.6252V52.3232H64.0588V62ZM78.4076 62.1494C79.7699 62.1494 80.7983 61.543 81.2992 60.4971H81.4574V62H84.0238V48.623H81.4574V53.8701H81.2992C80.8158 52.8154 79.7348 52.165 78.4076 52.165C75.9555 52.165 74.4789 54.0371 74.4789 57.1484V57.166C74.4789 60.2598 75.9906 62.1494 78.4076 62.1494ZM79.2778 60.0225C77.9242 60.0225 77.0893 58.9502 77.0893 57.166V57.1484C77.0893 55.3818 77.9242 54.292 79.2778 54.292C80.6313 54.292 81.4838 55.3818 81.4838 57.1572V57.1748C81.4838 58.9502 80.6401 60.0225 79.2778 60.0225ZM86.2701 62H88.8365V56.5859C88.8365 55.2148 89.7594 54.3799 91.2184 54.3799C91.6139 54.3799 92.0094 54.4414 92.3961 54.5293V52.2881C92.1412 52.2178 91.7809 52.165 91.4381 52.165C90.1813 52.165 89.3024 52.7803 88.9948 53.8262H88.8365V52.3232H86.2701V62ZM97.7713 62.2021C100.751 62.2021 102.544 60.3213 102.544 57.166V57.1484C102.544 54.0195 100.724 52.1123 97.7713 52.1123C94.8182 52.1123 92.9989 54.0283 92.9989 57.1484V57.166C92.9989 60.3125 94.7918 62.2021 97.7713 62.2021ZM97.7713 60.1895C96.4002 60.1895 95.6268 59.0732 95.6268 57.166V57.1484C95.6268 55.2588 96.409 54.125 97.7713 54.125C99.1248 54.125 99.9159 55.2588 99.9159 57.1484V57.166C99.9159 59.0732 99.1336 60.1895 97.7713 60.1895ZM105.537 50.8379C106.328 50.8379 106.979 50.2051 106.979 49.4141C106.979 48.6143 106.328 47.9814 105.537 47.9814C104.746 47.9814 104.087 48.6143 104.087 49.4141C104.087 50.2051 104.746 50.8379 105.537 50.8379ZM104.245 62H106.812V52.3232H104.245V62ZM112.442 62.1494C113.804 62.1494 114.832 61.543 115.333 60.4971H115.491V62H118.058V48.623H115.491V53.8701H115.333C114.85 52.8154 113.769 52.165 112.442 52.165C109.99 52.165 108.513 54.0371 108.513 57.1484V57.166C108.513 60.2598 110.025 62.1494 112.442 62.1494ZM113.312 60.0225C111.958 60.0225 111.123 58.9502 111.123 57.166V57.1484C111.123 55.3818 111.958 54.292 113.312 54.292C114.665 54.292 115.518 55.3818 115.518 57.1572V57.1748C115.518 58.9502 114.674 60.0225 113.312 60.0225Z" fill="white"/>
<path d="M55.5483 126.481C55.5483 127.395 56.2946 128.142 57.2128 128.142H59.1157V132.846C59.1157 134.038 60.0729 135.011 61.249 135.011C62.429 135.011 63.3824 134.042 63.3824 132.846V128.138H66.7036V132.842C66.7036 134.034 67.6608 135.007 68.8369 135.007C70.0169 135.007 70.9703 134.038 70.9703 132.842V128.138H72.8731C73.7913 128.138 74.5376 127.391 74.5376 126.477V111.036H55.5483V126.481ZM69.5012 103.034L71.2555 100.494C71.3571 100.345 71.3337 100.146 71.1969 100.048C71.0602 99.9547 70.8648 100.002 70.7632 100.15L68.9424 102.791C67.7429 102.319 66.4066 102.057 65.0039 102.057C63.6012 102.057 62.2649 102.319 61.0654 102.791L59.2446 100.154C59.143 100.005 58.9476 99.9547 58.8109 100.052C58.6741 100.146 58.6507 100.341 58.7523 100.498L60.5066 103.038C57.7168 104.335 55.7632 106.792 55.5132 109.664H74.5025C74.2446 106.788 72.287 104.331 69.5012 103.034ZM60.995 107.039C60.7872 107.039 60.584 106.977 60.4111 106.861C60.2383 106.746 60.1035 106.582 60.024 106.39C59.9444 106.198 59.9236 105.986 59.9642 105.782C60.0047 105.579 60.1048 105.391 60.2518 105.244C60.3988 105.097 60.5861 104.997 60.79 104.957C60.9939 104.916 61.2052 104.937 61.3973 105.016C61.5893 105.096 61.7535 105.231 61.869 105.404C61.9845 105.576 62.0461 105.78 62.0461 105.987C62.0454 106.266 61.9344 106.533 61.7375 106.73C61.5405 106.927 61.2736 107.038 60.995 107.039ZM69.1378 107.039C68.9299 107.039 68.7267 106.977 68.5539 106.861C68.381 106.746 68.2463 106.582 68.1667 106.39C68.0872 106.198 68.0664 105.986 68.1069 105.782C68.1475 105.579 68.2476 105.391 68.3946 105.244C68.5416 105.097 68.7289 104.997 68.9327 104.957C69.1366 104.916 69.348 104.937 69.54 105.016C69.7321 105.096 69.8962 105.231 70.0117 105.404C70.1272 105.576 70.1888 105.78 70.1888 105.987C70.1881 106.266 70.0772 106.533 69.8802 106.73C69.6832 106.927 69.4163 107.038 69.1378 107.039ZM77.8666 110.973C76.6866 110.973 75.7333 111.942 75.7333 113.138V121.593C75.7333 122.785 76.6905 123.758 77.8666 123.758C79.0466 123.758 80 122.789 80 121.593V113.134C80.0039 111.938 79.0505 110.973 77.8666 110.973ZM52.1334 110.973C50.9534 110.973 50 111.942 50 113.138V121.593C50 122.785 50.9573 123.758 52.1334 123.758C53.3134 123.758 54.2667 122.789 54.2667 121.593V113.134C54.2667 111.938 53.3095 110.973 52.1334 110.973Z" fill="white"/>
<defs>
<filter id="filter0_d" x="0" y="0" width="220" height="195" filterUnits="userSpaceOnUse" color-interpolation-filters="sRGB">
<feFlood flood-opacity="0" result="BackgroundImageFix"/>
<feColorMatrix in="SourceAlpha" type="matrix" values="0 0 0 0 0 0 0 0 0 0 0 0 0 0 0 0 0 0 127 0"/>
<feOffset dy="10"/>
<feGaussianBlur stdDeviation="17.5"/>
<feColorMatrix type="matrix" values="0 0 0 0 0.984314 0 0 0 0 0.439216 0 0 0 0 0.564706 0 0 0 0.25 0"/>
<feBlend mode="normal" in2="BackgroundImageFix" result="effect1_dropShadow"/>
<feBlend mode="normal" in="SourceGraphic" in2="effect1_dropShadow" result="shape"/>
</filter>
<linearGradient id="paint0_linear" x1="35" y1="150" x2="202.132" y2="55.2049" gradientUnits="userSpaceOnUse">
<stop stop-color="#A61CE8"/>
<stop offset="1" stop-color="#F6815B"/>
</linearGradient>
<linearGradient id="paint1_linear" x1="35" y1="150" x2="202.132" y2="55.2049" gradientUnits="userSpaceOnUse">
<stop stop-color="#FC67A7"/>
<stop offset="1" stop-color="#F6815B"/>
</linearGradient>
</defs>
</svg>
