<svg width="220" height="195" viewBox="0 0 220 195" fill="none" xmlns="http://www.w3.org/2000/svg">
<g filter="url(#filter0_d)">
<rect x="35" y="25" width="150" height="125" rx="10" fill="url(#paint0_linear)"/>
</g>
<mask id="mask0" mask-type="alpha" maskUnits="userSpaceOnUse" x="35" y="25" width="150" height="125">
<rect x="35" y="25" width="150" height="125" rx="10" fill="url(#paint1_linear)"/>
</mask>
<g mask="url(#mask0)">
<path opacity="0.15" d="M52.6321 88.9413C37.0508 74.0057 25.0391 76.8466 18.0617 80.4186C16.6946 98.6478 14.7805 137.095 18.0617 145.049C22.1633 154.993 59.0774 159.254 84.2727 164.225C104.429 168.203 192.28 172.275 230.757 164.225C234.859 133.686 240.601 38.3731 230.757 37.805C218.452 37.0947 189.715 54.4801 169.766 94.963C143.691 147.875 133.438 76.1364 104.434 67.9687C87.8429 63.2967 68.2408 103.903 52.6321 88.9413Z" fill="white"/>
<path opacity="0.15" d="M52.5781 97.4641C39.9116 90.8958 28.8039 96.9906 20.4055 97.4641C19.0383 115.693 17.1242 154.14 20.4055 162.095C24.5071 172.038 61.4211 176.299 86.6164 181.271C106.773 185.248 194.624 170.144 233.101 162.095C237.202 131.555 242.945 55.4186 233.101 54.8504C220.796 54.1402 192.059 71.5256 172.109 112.008C146.035 164.92 104.727 152.136 90.0781 133.67C78.2727 118.788 68.9844 105.972 52.5781 97.4641Z" fill="white"/>
</g>
<path d="M54.5381 62H59.5303C63.3271 62 65.4805 59.6797 65.4805 55.584V55.5664C65.4805 51.5938 63.3008 49.3174 59.5303 49.3174H54.5381V62ZM57.1924 59.8115V51.5059H59.1084C61.4111 51.5059 62.7734 53 62.7734 55.6104V55.6279C62.7734 58.335 61.4551 59.8115 59.1084 59.8115H57.1924ZM71.594 62.2021C74.424 62.2021 75.6721 60.5674 75.9709 59.3545L75.9885 59.2666H73.5979L73.5715 59.3193C73.3957 59.6885 72.7717 60.2861 71.6467 60.2861C70.2844 60.2861 69.4318 59.3633 69.4055 57.7725H76.0676V56.9727C76.0676 54.0459 74.3098 52.1123 71.4885 52.1123C68.6672 52.1123 66.8654 54.0898 66.8654 57.166V57.1748C66.8654 60.2773 68.6496 62.2021 71.594 62.2021ZM71.5324 54.0371C72.6486 54.0371 73.4484 54.7578 73.6066 56.1641H69.4318C69.59 54.793 70.4162 54.0371 71.5324 54.0371ZM81.6098 62.2021C84.0883 62.2021 85.8549 60.9541 85.8549 59.0381V59.0293C85.8549 57.5967 84.9496 56.7881 83.016 56.375L81.4076 56.0322C80.4057 55.8125 80.0453 55.5137 80.0453 54.9951V54.9863C80.0453 54.3359 80.6781 53.9229 81.5658 53.9229C82.5238 53.9229 83.0951 54.4062 83.2358 54.9248L83.2445 54.9688H85.6264V54.9336C85.5209 53.3779 84.1147 52.1123 81.5746 52.1123C79.1576 52.1123 77.5404 53.3252 77.5404 55.1445V55.1533C77.5404 56.6035 78.4545 57.5088 80.3002 57.9043L81.9174 58.2471C82.9018 58.4668 83.2885 58.792 83.2885 59.3105V59.3281C83.2885 59.9697 82.6205 60.3916 81.6361 60.3916C80.6254 60.3916 80.0365 59.9609 79.8344 59.3633L79.8168 59.3281H77.2944L77.3031 59.3633C77.4877 61.0244 78.9819 62.2021 81.6098 62.2021ZM88.8571 50.8379C89.6481 50.8379 90.2985 50.2051 90.2985 49.4141C90.2985 48.6143 89.6481 47.9814 88.8571 47.9814C88.066 47.9814 87.4069 48.6143 87.4069 49.4141C87.4069 50.2051 88.066 50.8379 88.8571 50.8379ZM87.5651 62H90.1315V52.3232H87.5651V62ZM96.5789 65.4014C99.5057 65.4014 101.36 63.9688 101.36 61.7012V52.3232H98.7938V53.9053H98.6707C98.1522 52.8154 97.1151 52.165 95.7879 52.165C93.3094 52.165 91.8065 54.0811 91.8065 56.9287V56.9463C91.8065 59.6973 93.3094 61.5781 95.744 61.5781C97.0887 61.5781 98.1082 61.0244 98.6444 60.0049H98.8026V61.8066C98.8026 62.9316 98.0028 63.5732 96.6317 63.5732C95.4891 63.5732 94.8211 63.1865 94.6805 62.624L94.6717 62.5889H92.1317V62.6328C92.3426 64.2764 93.8983 65.4014 96.5789 65.4014ZM96.6141 59.6094C95.2254 59.6094 94.4344 58.5283 94.4344 56.9375V56.9199C94.4344 55.3291 95.2342 54.248 96.6141 54.248C97.994 54.248 98.8289 55.3291 98.8289 56.9199V56.9375C98.8289 58.5283 98.0028 59.6094 96.6141 59.6094ZM103.519 62H106.085V56.4014C106.085 55.0918 106.806 54.2393 107.992 54.2393C109.205 54.2393 109.768 54.96 109.768 56.3223V62H112.334V55.7422C112.334 53.4307 111.174 52.1123 109.021 52.1123C107.641 52.1123 106.683 52.7715 106.243 53.8174H106.085V52.3232H103.519V62Z" fill="white"/>
<path d="M78.521 126.736C79.2575 126.724 79.9594 126.421 80.4726 125.892C80.9858 125.364 81.2686 124.654 81.259 123.917L81.273 109.817C81.2776 109.08 80.9912 108.37 80.4759 107.843C79.9607 107.316 79.2582 107.013 78.521 107H56.5C55.7631 107.014 55.0614 107.317 54.5469 107.845C54.0325 108.373 53.7469 109.082 53.752 109.819V123.919C53.7474 124.656 54.0333 125.364 54.5477 125.892C55.062 126.419 55.7635 126.722 56.5 126.736H51V129.555H84.025V126.736H78.521ZM56.5 109.819H78.521V123.919H56.5V109.819Z" fill="white"/>
<defs>
<filter id="filter0_d" x="0" y="0" width="220" height="195" filterUnits="userSpaceOnUse" color-interpolation-filters="sRGB">
<feFlood flood-opacity="0" result="BackgroundImageFix"/>
<feColorMatrix in="SourceAlpha" type="matrix" values="0 0 0 0 0 0 0 0 0 0 0 0 0 0 0 0 0 0 127 0"/>
<feOffset dy="10"/>
<feGaussianBlur stdDeviation="17.5"/>
<feColorMatrix type="matrix" values="0 0 0 0 0.984314 0 0 0 0 0.439216 0 0 0 0 0.564706 0 0 0 0.25 0"/>
<feBlend mode="normal" in2="BackgroundImageFix" result="effect1_dropShadow"/>
<feBlend mode="normal" in="SourceGraphic" in2="effect1_dropShadow" result="shape"/>
</filter>
<linearGradient id="paint0_linear" x1="35" y1="150" x2="202.132" y2="55.2049" gradientUnits="userSpaceOnUse">
<stop stop-color="#A61CE8"/>
<stop offset="1" stop-color="#F6815B"/>
</linearGradient>
<linearGradient id="paint1_linear" x1="35" y1="150" x2="202.132" y2="55.2049" gradientUnits="userSpaceOnUse">
<stop stop-color="#FC67A7"/>
<stop offset="1" stop-color="#F6815B"/>
</linearGradient>
</defs>
</svg>
