<svg width="220" height="195" viewBox="0 0 220 195" fill="none" xmlns="http://www.w3.org/2000/svg">
<g filter="url(#filter0_d)">
<rect x="35" y="25" width="150" height="125" rx="10" fill="url(#paint0_linear)"/>
</g>
<mask id="mask0" mask-type="alpha" maskUnits="userSpaceOnUse" x="35" y="25" width="150" height="125">
<rect x="35" y="25" width="150" height="125" rx="10" fill="url(#paint1_linear)"/>
</mask>
<g mask="url(#mask0)">
<path opacity="0.15" d="M52.6321 88.9413C37.0508 74.0057 25.0391 76.8466 18.0617 80.4186C16.6946 98.6478 14.7805 137.095 18.0617 145.049C22.1633 154.993 59.0774 159.254 84.2727 164.225C104.429 168.203 192.28 172.275 230.757 164.225C234.859 133.686 240.601 38.3731 230.757 37.805C218.452 37.0947 189.715 54.4801 169.766 94.963C143.691 147.875 133.438 76.1364 104.434 67.9687C87.8429 63.2967 68.2408 103.903 52.6321 88.9413Z" fill="white"/>
<path opacity="0.15" d="M52.5781 97.4641C39.9116 90.8958 28.8039 96.9906 20.4055 97.4641C19.0383 115.693 17.1242 154.14 20.4055 162.095C24.5071 172.038 61.4211 176.299 86.6164 181.271C106.773 185.248 194.624 170.144 233.101 162.095C237.202 131.555 242.945 55.4186 233.101 54.8504C220.796 54.1402 192.059 71.5256 172.109 112.008C146.035 164.92 104.727 152.136 90.0781 133.67C78.2727 118.788 68.9844 105.972 52.5781 97.4641Z" fill="white"/>
</g>
<path d="M49.5381 60H51.9023V51.3691H52.0781L55.3301 60H56.9912L60.2432 51.3691H60.4189V60H62.7832V47.3174H59.7422L56.2441 56.5986H56.0859L52.5791 47.3174H49.5381V60ZM67.842 60.1494C69.1076 60.1494 70.1272 59.6133 70.6193 58.7168H70.7775V60H73.3088V53.3906C73.3088 51.3252 71.8586 50.1123 69.2922 50.1123C66.8576 50.1123 65.258 51.2373 65.0559 52.9336L65.0471 53.0127H67.4201L67.4377 52.9775C67.6399 52.4062 68.2287 52.0811 69.1516 52.0811C70.2063 52.0811 70.7775 52.5557 70.7775 53.3906V54.1904L68.4397 54.3311C66.0315 54.4717 64.6867 55.4912 64.6867 57.2314V57.249C64.6867 59.0068 65.9963 60.1494 67.842 60.1494ZM67.1916 57.0908V57.0732C67.1916 56.3701 67.7277 55.957 68.8264 55.8867L70.7775 55.7637V56.4756C70.7775 57.4951 69.8899 58.2773 68.7033 58.2773C67.8156 58.2773 67.1916 57.8291 67.1916 57.0908ZM75.4145 60H77.9809V54.5859C77.9809 53.2148 78.9037 52.3799 80.3627 52.3799C80.7582 52.3799 81.1537 52.4414 81.5404 52.5293V50.2881C81.2856 50.2178 80.9252 50.165 80.5824 50.165C79.3256 50.165 78.4467 50.7803 78.1391 51.8262H77.9809V50.3232H75.4145V60ZM82.9342 60H85.5006V56.7568L86.2037 56.0098L89.025 60H92.0573L88.0846 54.4277L91.8024 50.3232H88.8932L85.6588 54.1465H85.5006V46.623H82.9342V60ZM96.9403 60.2021C99.7703 60.2021 101.018 58.5674 101.317 57.3545L101.335 57.2666H98.9442L98.9178 57.3193C98.742 57.6885 98.118 58.2861 96.993 58.2861C95.6307 58.2861 94.7782 57.3633 94.7518 55.7725H101.414V54.9727C101.414 52.0459 99.6561 50.1123 96.8348 50.1123C94.0135 50.1123 92.2118 52.0898 92.2118 55.166V55.1748C92.2118 58.2773 93.9959 60.2021 96.9403 60.2021ZM96.8787 52.0371C97.995 52.0371 98.7948 52.7578 98.953 54.1641H94.7782C94.9364 52.793 95.7625 52.0371 96.8787 52.0371ZM107.123 60.0352C107.615 60.0352 108.09 59.9824 108.406 59.9209V58.0137C108.16 58.04 107.984 58.0576 107.65 58.0576C106.78 58.0576 106.411 57.6709 106.411 56.8008V52.2568H108.406V50.3232H106.411V48.0117H103.818V50.3232H102.324V52.2568H103.818V57.3896C103.818 59.2705 104.768 60.0352 107.123 60.0352ZM111.444 48.8379C112.235 48.8379 112.885 48.2051 112.885 47.4141C112.885 46.6143 112.235 45.9814 111.444 45.9814C110.653 45.9814 109.993 46.6143 109.993 47.4141C109.993 48.2051 110.653 48.8379 111.444 48.8379ZM110.152 60H112.718V50.3232H110.152V60ZM114.894 60H117.46V54.4014C117.46 53.0918 118.181 52.2393 119.368 52.2393C120.581 52.2393 121.143 52.96 121.143 54.3223V60H123.709V53.7422C123.709 51.4307 122.549 50.1123 120.396 50.1123C119.016 50.1123 118.058 50.7715 117.619 51.8174H117.46V50.3232H114.894V60ZM130.06 63.4014C132.987 63.4014 134.841 61.9688 134.841 59.7012V50.3232H132.275V51.9053H132.152C131.633 50.8154 130.596 50.165 129.269 50.165C126.791 50.165 125.288 52.0811 125.288 54.9287V54.9463C125.288 57.6973 126.791 59.5781 129.225 59.5781C130.57 59.5781 131.59 59.0244 132.126 58.0049H132.284V59.8066C132.284 60.9316 131.484 61.5732 130.113 61.5732C128.97 61.5732 128.302 61.1865 128.162 60.624L128.153 60.5889H125.613V60.6328C125.824 62.2764 127.38 63.4014 130.06 63.4014ZM130.095 57.6094C128.707 57.6094 127.916 56.5283 127.916 54.9375V54.9199C127.916 53.3291 128.715 52.248 130.095 52.248C131.475 52.248 132.31 53.3291 132.31 54.9199V54.9375C132.31 56.5283 131.484 57.6094 130.095 57.6094Z" fill="white"/>
<path d="M70.337 111.024L60.285 113.094L50.233 111.024C48.945 110.804 48 112.117 48 113.457V129.273C48.0185 129.879 48.2542 130.458 48.6641 130.905C49.074 131.352 49.6308 131.636 50.233 131.706L60.285 133.773L70.337 131.703C70.9387 131.633 71.4951 131.349 71.905 130.903C72.3148 130.457 72.5508 129.879 72.57 129.273V113.457C72.57 112.117 71.625 110.804 70.337 111.024ZM70.337 129.269L61.407 131.339V115.521L70.337 113.451V129.269ZM59.163 131.339L50.233 129.273V113.457L59.163 115.527V131.339Z" fill="white"/>
<defs>
<filter id="filter0_d" x="0" y="0" width="220" height="195" filterUnits="userSpaceOnUse" color-interpolation-filters="sRGB">
<feFlood flood-opacity="0" result="BackgroundImageFix"/>
<feColorMatrix in="SourceAlpha" type="matrix" values="0 0 0 0 0 0 0 0 0 0 0 0 0 0 0 0 0 0 127 0"/>
<feOffset dy="10"/>
<feGaussianBlur stdDeviation="17.5"/>
<feColorMatrix type="matrix" values="0 0 0 0 0.984314 0 0 0 0 0.439216 0 0 0 0 0.564706 0 0 0 0.25 0"/>
<feBlend mode="normal" in2="BackgroundImageFix" result="effect1_dropShadow"/>
<feBlend mode="normal" in="SourceGraphic" in2="effect1_dropShadow" result="shape"/>
</filter>
<linearGradient id="paint0_linear" x1="35" y1="150" x2="202.132" y2="55.2049" gradientUnits="userSpaceOnUse">
<stop stop-color="#A61CE8"/>
<stop offset="1" stop-color="#F6815B"/>
</linearGradient>
<linearGradient id="paint1_linear" x1="35" y1="150" x2="202.132" y2="55.2049" gradientUnits="userSpaceOnUse">
<stop stop-color="#FC67A7"/>
<stop offset="1" stop-color="#F6815B"/>
</linearGradient>
</defs>
</svg>
