<svg width="219" height="195" viewBox="0 0 219 195" fill="none" xmlns="http://www.w3.org/2000/svg">
<g filter="url(#filter0_d)">
<rect x="35" y="25" width="149" height="125" rx="10" fill="url(#paint0_linear)"/>
</g>
<mask id="mask0" mask-type="alpha" maskUnits="userSpaceOnUse" x="35" y="25" width="149" height="125">
<rect x="35" y="25" width="149" height="125" rx="10" fill="url(#paint1_linear)"/>
</mask>
<g mask="url(#mask0)">
<path opacity="0.15" d="M52.5145 88.9413C37.0371 74.0057 25.1055 76.8466 18.1747 80.4186C16.8166 98.6478 14.9153 137.095 18.1747 145.049C22.2489 154.993 58.9169 159.254 83.9442 164.225C103.966 168.203 191.232 172.275 229.452 164.225C233.526 133.686 239.23 38.3731 229.452 37.805C217.229 37.0947 188.684 54.4801 168.867 94.963C142.967 147.875 132.781 76.1364 103.971 67.9687C87.4906 63.2967 68.0192 103.903 52.5145 88.9413Z" fill="white"/>
<path opacity="0.15" d="M52.4609 97.4641C39.8788 90.8958 28.8452 96.9906 20.5028 97.4641C19.1447 115.693 17.2434 154.14 20.5028 162.095C24.577 172.038 61.245 176.299 86.2723 181.271C106.294 185.248 193.56 170.144 231.78 162.095C235.854 131.555 241.558 55.4186 231.78 54.8504C219.557 54.1402 191.012 71.5256 171.195 112.008C145.295 164.92 104.262 152.136 89.7109 133.67C77.9842 118.788 68.7578 105.972 52.4609 97.4641Z" fill="white"/>
</g>
<path d="M59.8604 64H63.1299L67.3574 51.3174H64.3691L61.5742 61.0469H61.416L58.6123 51.3174H55.6328L59.8604 64ZM70.175 52.8379C70.966 52.8379 71.6164 52.2051 71.6164 51.4141C71.6164 50.6143 70.966 49.9814 70.175 49.9814C69.384 49.9814 68.7248 50.6143 68.7248 51.4141C68.7248 52.2051 69.384 52.8379 70.175 52.8379ZM68.883 64H71.4494V54.3232H68.883V64ZM77.0795 64.1494C78.4418 64.1494 79.4701 63.543 79.9711 62.4971H80.1293V64H82.6957V50.623H80.1293V55.8701H79.9711C79.4877 54.8154 78.4067 54.165 77.0795 54.165C74.6274 54.165 73.1508 56.0371 73.1508 59.1484V59.166C73.1508 62.2598 74.6625 64.1494 77.0795 64.1494ZM77.9496 62.0225C76.5961 62.0225 75.7611 60.9502 75.7611 59.166V59.1484C75.7611 57.3818 76.5961 56.292 77.9496 56.292C79.3031 56.292 80.1557 57.3818 80.1557 59.1572V59.1748C80.1557 60.9502 79.3119 62.0225 77.9496 62.0225ZM89.1959 64.2021C92.026 64.2021 93.274 62.5674 93.5729 61.3545L93.5905 61.2666H91.1998L91.1735 61.3193C90.9977 61.6885 90.3737 62.2861 89.2487 62.2861C87.8864 62.2861 87.0338 61.3633 87.0074 59.7725H93.6696V58.9727C93.6696 56.0459 91.9117 54.1123 89.0905 54.1123C86.2692 54.1123 84.4674 56.0898 84.4674 59.166V59.1748C84.4674 62.2773 86.2516 64.2021 89.1959 64.2021ZM89.1344 56.0371C90.2506 56.0371 91.0504 56.7578 91.2086 58.1641H87.0338C87.192 56.793 88.0182 56.0371 89.1344 56.0371ZM99.66 64.2021C102.639 64.2021 104.432 62.3213 104.432 59.166V59.1484C104.432 56.0195 102.613 54.1123 99.66 54.1123C96.7069 54.1123 94.8875 56.0283 94.8875 59.1484V59.166C94.8875 62.3125 96.6805 64.2021 99.66 64.2021ZM99.66 62.1895C98.2889 62.1895 97.5155 61.0732 97.5155 59.166V59.1484C97.5155 57.2588 98.2977 56.125 99.66 56.125C101.014 56.125 101.805 57.2588 101.805 59.1484V59.166C101.805 61.0732 101.022 62.1895 99.66 62.1895Z" fill="white"/>
<path d="M77.757 107.002H55.476C55.1645 106.988 54.8532 107.036 54.56 107.142C54.2668 107.248 53.9974 107.411 53.7674 107.622C53.5374 107.833 53.3512 108.087 53.2195 108.369C53.0878 108.652 53.0132 108.958 53 109.269V122.869C53.0285 123.498 53.3052 124.09 53.7694 124.515C54.2335 124.94 54.8473 125.163 55.476 125.136H61.665V127.402H71.565V125.139H77.754C78.3807 125.164 78.9916 124.939 79.4531 124.514C79.9146 124.089 80.1892 123.499 80.217 122.872L80.229 109.272C80.2009 108.644 79.9251 108.052 79.4618 107.627C78.9985 107.202 78.3855 106.977 77.757 107.002ZM77.757 122.872H66.6165H55.476V109.269H77.757V122.872ZM71.568 116.072L62.9 120.602V111.536L71.568 116.072Z" fill="white"/>
<defs>
<filter id="filter0_d" x="0" y="0" width="219" height="195" filterUnits="userSpaceOnUse" color-interpolation-filters="sRGB">
<feFlood flood-opacity="0" result="BackgroundImageFix"/>
<feColorMatrix in="SourceAlpha" type="matrix" values="0 0 0 0 0 0 0 0 0 0 0 0 0 0 0 0 0 0 127 0"/>
<feOffset dy="10"/>
<feGaussianBlur stdDeviation="17.5"/>
<feColorMatrix type="matrix" values="0 0 0 0 0.290196 0 0 0 0 0.501961 0 0 0 0 0.941176 0 0 0 0.2 0"/>
<feBlend mode="normal" in2="BackgroundImageFix" result="effect1_dropShadow"/>
<feBlend mode="normal" in="SourceGraphic" in2="effect1_dropShadow" result="shape"/>
</filter>
<linearGradient id="paint0_linear" x1="35" y1="150" x2="201.556" y2="56.1611" gradientUnits="userSpaceOnUse">
<stop stop-color="#441DFC"/>
<stop offset="1" stop-color="#4E81EB"/>
</linearGradient>
<linearGradient id="paint1_linear" x1="177" y1="30" x2="38.5" y2="150" gradientUnits="userSpaceOnUse">
<stop offset="0.0365707" stop-color="#F9B50F"/>
<stop offset="1" stop-color="#8A6508"/>
</linearGradient>
</defs>
</svg>
