<svg width="219" height="195" viewBox="0 0 219 195" fill="none" xmlns="http://www.w3.org/2000/svg">
<g filter="url(#filter0_d)">
<rect x="35" y="25" width="149" height="125" rx="10" fill="url(#paint0_linear)"/>
</g>
<mask id="mask0" mask-type="alpha" maskUnits="userSpaceOnUse" x="35" y="25" width="149" height="125">
<rect x="35" y="25" width="149" height="125" rx="10" fill="url(#paint1_linear)"/>
</mask>
<g mask="url(#mask0)">
<path opacity="0.15" d="M52.5145 88.9413C37.0371 74.0057 25.1055 76.8466 18.1747 80.4186C16.8166 98.6478 14.9153 137.095 18.1747 145.049C22.2489 154.993 58.9169 159.254 83.9442 164.225C103.966 168.203 191.232 172.275 229.452 164.225C233.526 133.686 239.23 38.3731 229.452 37.805C217.229 37.0947 188.684 54.4801 168.867 94.963C142.967 147.875 132.781 76.1364 103.971 67.9687C87.4906 63.2967 68.0192 103.903 52.5145 88.9413Z" fill="white"/>
<path opacity="0.15" d="M52.4609 97.4641C39.8788 90.8958 28.8452 96.9906 20.5028 97.4641C19.1447 115.693 17.2434 154.14 20.5028 162.095C24.577 172.038 61.245 176.299 86.2723 181.271C106.294 185.248 193.56 170.144 231.78 162.095C235.854 131.555 241.558 55.4186 231.78 54.8504C219.557 54.1402 191.012 71.5256 171.195 112.008C145.295 164.92 104.262 152.136 89.7109 133.67C77.9842 118.788 68.7578 105.972 52.4609 97.4641Z" fill="white"/>
</g>
<path d="M56.1309 61H58.6357L61.0088 52.457H61.1494L63.5488 61H66.0361L69.4023 48.3174H66.6602L64.7002 57.3789H64.5596L62.2041 48.3174H59.9629L57.6514 57.3789H57.5107L55.5332 48.3174H52.7734L56.1309 61ZM74.2502 61.2021C77.0803 61.2021 78.3283 59.5674 78.6272 58.3545L78.6447 58.2666H76.2541L76.2277 58.3193C76.052 58.6885 75.4279 59.2861 74.3029 59.2861C72.9406 59.2861 72.0881 58.3633 72.0617 56.7725H78.7238V55.9727C78.7238 53.0459 76.966 51.1123 74.1447 51.1123C71.3234 51.1123 69.5217 53.0898 69.5217 56.166V56.1748C69.5217 59.2773 71.3059 61.2021 74.2502 61.2021ZM74.1887 53.0371C75.3049 53.0371 76.1047 53.7578 76.2629 55.1641H72.0881C72.2463 53.793 73.0725 53.0371 74.1887 53.0371ZM86.1293 61.1494C88.5463 61.1494 90.058 59.2598 90.058 56.166V56.1484C90.058 53.0371 88.5815 51.165 86.1293 51.165C84.8022 51.165 83.7211 51.8154 83.2289 52.8701H83.0707V47.623H80.5043V61H83.0707V59.4971H83.2289C83.7299 60.543 84.7582 61.1494 86.1293 61.1494ZM85.2504 59.0225C83.8969 59.0225 83.0444 57.9502 83.0444 56.1748V56.1572C83.0444 54.3818 83.9057 53.292 85.2504 53.292C86.6039 53.292 87.4477 54.3818 87.4477 56.1484V56.166C87.4477 57.9502 86.6127 59.0225 85.2504 59.0225Z" fill="white"/>
<path d="M52 115.311V115.269C52.3766 110.415 54.1339 106.775 57.1883 104.474C60.2008 102.131 63.4644 101.001 67.0209 101.001C70.7448 100.959 74.2176 102.214 77.3138 104.725C80.4519 107.193 82 110.875 82 115.645V115.938C82 120.75 80.4519 124.348 77.3138 126.817C74.1757 129.327 70.7029 130.583 66.9791 130.583H66.8117C63.1715 130.541 59.8243 129.286 56.728 126.775C53.6318 124.306 52.0418 120.499 52 115.311ZM66.1004 108.742V102.131H65.0962C64.887 102.382 64.7197 102.675 64.5523 102.926C64.3849 103.177 64.2176 103.428 64.0502 103.721C63.8828 103.972 63.6736 104.306 63.5481 104.557C63.3808 104.809 63.2552 105.06 63.1297 105.352C62.8787 105.771 62.6695 106.189 62.5021 106.566C62.2929 106.942 62.1255 107.319 62 107.654C62.251 107.821 62.5439 108.03 62.8787 108.156C63.2552 108.281 63.6318 108.407 64.0084 108.491C64.4268 108.574 64.8033 108.616 65.1381 108.658C65.5146 108.7 65.8494 108.742 66.1004 108.742ZM67.8577 102.131V108.7C68.0669 108.7 68.318 108.742 68.569 108.7C68.8201 108.7 69.113 108.658 69.364 108.616C69.8243 108.532 70.3682 108.407 70.7866 108.281C71.2469 108.114 71.6653 107.905 71.9582 107.654C71.4561 106.44 70.9121 105.478 70.3682 104.557C69.8243 103.637 69.1967 102.842 68.5272 102.173V102.131H67.8577ZM63.3389 102.507V102.465C63.046 102.591 62.7531 102.8 62.4184 102.926C62.1255 103.051 61.749 103.219 61.4561 103.386C60.8703 103.679 60.2845 104.014 59.6987 104.39C59.1548 104.767 58.6109 105.185 58.1506 105.604C58.318 105.771 58.5272 105.938 58.6946 106.064C58.8619 106.189 59.0711 106.357 59.2803 106.524C59.4477 106.608 59.6569 106.733 59.8661 106.901C60.0753 107.026 60.3264 107.193 60.5774 107.361C60.9121 106.608 61.2469 105.813 61.6653 105.101C62.0837 104.348 62.5439 103.637 63.0042 103.009C63.046 102.926 63.0879 102.842 63.1715 102.758C63.2134 102.716 63.2552 102.591 63.3389 102.507ZM76.1423 105.604V105.562C75.0962 104.767 74.1757 104.097 73.2552 103.679C72.3347 103.26 71.4142 102.842 70.5774 102.507C71.2469 103.177 71.8326 104.014 72.2092 104.809C72.6276 105.645 73.046 106.524 73.3808 107.361C73.5481 107.277 73.7573 107.193 74.0084 107.026C74.2176 106.901 74.5105 106.775 74.7615 106.65C75.0126 106.482 75.2218 106.315 75.4728 106.147C75.7238 105.938 75.9749 105.771 76.1423 105.604ZM75.431 114.934H80.2427C80.2427 113.386 79.9079 111.922 79.2803 110.415C78.6946 108.951 77.8577 107.737 76.8117 106.691V106.65C76.6025 106.984 76.3096 107.277 76.0167 107.486C75.682 107.696 75.3891 107.863 75.0544 108.03C74.8452 108.156 74.636 108.323 74.4268 108.407C74.2176 108.532 73.9247 108.616 73.7155 108.742C73.8828 109.076 74.0502 109.453 74.2176 109.788C74.3431 110.164 74.5523 110.583 74.636 110.959C74.887 111.629 75.0544 112.34 75.2218 113.051C75.3473 113.679 75.431 114.348 75.431 114.934ZM60.2845 108.742V108.7C59.9498 108.532 59.5732 108.407 59.2803 108.24C58.9874 108.03 58.6946 107.821 58.4435 107.654C58.1925 107.528 57.9414 107.361 57.7322 107.193C57.523 107.026 57.3556 106.859 57.1883 106.691C56.1004 107.737 55.3054 108.909 54.8033 110.29C54.2594 111.67 53.8828 113.219 53.7155 114.892H58.8619C58.8619 113.721 59.0293 112.591 59.3222 111.461C59.5732 110.29 59.9498 109.411 60.2845 108.742ZM66.1004 114.892V110.081C65.7657 110.122 65.3473 110.122 64.9707 110.081C64.5523 110.039 64.1339 109.913 63.7573 109.788C63.4226 109.704 63.0042 109.62 62.6695 109.495C62.2929 109.411 61.9163 109.244 61.6234 109.076C61.3724 109.495 61.1632 109.997 60.9958 110.541C60.7866 111.043 60.6611 111.587 60.5356 112.089C60.4519 112.591 60.41 113.135 60.3682 113.595C60.3264 114.055 60.2845 114.516 60.2845 114.892H66.1004ZM67.8577 110.164V114.892H74.0502C74.0502 114.641 74.0502 114.348 74.0084 114.014C73.9247 113.721 73.8828 113.344 73.841 113.009C73.7155 112.507 73.59 111.963 73.4226 111.461C73.2552 111.001 73.0879 110.541 72.8787 110.164C72.795 109.955 72.7113 109.704 72.6276 109.537C72.5021 109.327 72.3766 109.202 72.2929 109.076C71.8326 109.411 71.205 109.62 70.4519 109.788C69.7406 109.955 68.9038 110.122 68.1506 110.164H67.8577ZM58.8619 116.273H53.7155C53.7155 116.984 53.841 117.779 54.0502 118.742C54.2594 119.746 54.6778 120.666 55.1381 121.67C55.3473 122.173 55.5983 122.675 55.8494 123.177C56.1423 123.637 56.477 124.139 56.8117 124.599C57.0628 124.432 57.3138 124.306 57.523 124.181C57.7741 124.055 58.0669 123.888 58.318 123.763C58.6109 123.637 58.9038 123.511 59.2385 123.344C59.5314 123.219 59.9079 123.051 60.2845 122.884C59.9498 121.838 59.5732 120.834 59.3222 119.704C59.0293 118.616 58.8619 117.528 58.8619 116.315V116.273ZM66.1004 121.168V116.273H60.2845C60.2845 116.608 60.3264 117.11 60.41 117.612C60.4519 118.114 60.5774 118.658 60.6611 119.202C60.8285 119.788 60.954 120.373 61.1213 120.875C61.2887 121.378 61.4561 121.796 61.6234 122.173C62.3766 121.88 63.1297 121.67 63.6318 121.545C64.1757 121.378 64.6778 121.252 65.1799 121.21H65.6402C65.8075 121.168 65.9749 121.168 66.1004 121.168ZM67.8577 116.273V121.127C68.1506 121.168 68.4854 121.21 68.8201 121.252C69.1967 121.294 69.6569 121.378 70.0335 121.461L70.6611 121.587C70.8703 121.67 71.1213 121.712 71.3305 121.754C71.5816 121.838 71.8326 121.88 72.0837 121.963C72.2929 122.047 72.5021 122.089 72.6695 122.173C73.2134 120.792 73.5481 119.662 73.7573 118.7C73.9665 117.779 74.0502 116.984 74.0502 116.315V116.273H67.8577ZM80.2427 116.315V116.273H75.431V116.524C75.3891 117.319 75.2636 118.24 75.0962 119.202C74.9289 120.122 74.5523 121.21 74.0502 122.549C74.7197 122.884 75.3473 123.219 75.8494 123.553C76.3515 123.888 76.8117 124.265 77.1464 124.599C77.8577 123.888 78.4854 122.926 79.0293 121.67C79.5732 120.457 79.9498 119.202 80.159 117.863C80.2008 117.612 80.2008 117.361 80.2427 117.11V116.315ZM66.1004 129.034V122.507C65.0544 122.675 64.1757 122.884 63.5063 123.051C62.8368 123.219 62.3347 123.386 62 123.553C62.251 124.181 62.5021 124.725 62.7531 125.227C63.0042 125.687 63.2971 126.189 63.5481 126.608C63.6318 126.775 63.7992 126.942 63.9247 127.152C64.0502 127.319 64.1339 127.528 64.2594 127.696C64.3849 127.905 64.5105 128.156 64.636 128.407C64.8033 128.616 64.9289 128.867 65.0962 129.034H66.1004ZM67.8577 129.034H68.8201C69.1967 128.742 69.5732 128.323 69.8661 127.863C70.2008 127.403 70.5774 126.859 70.8285 126.399C71.1213 125.855 71.4142 125.352 71.6653 124.85C71.9163 124.348 72.1255 123.888 72.2929 123.553C71.8326 123.386 71.205 123.219 70.5774 123.051C69.9498 122.884 69.0711 122.716 67.8577 122.549V129.034ZM76.1423 125.604V125.562C76.0586 125.436 75.8912 125.269 75.7657 125.143C75.6402 125.018 75.431 124.85 75.2218 124.725C75.0544 124.599 74.8452 124.474 74.5941 124.348C74.3431 124.223 74.0084 124.055 73.7155 123.888C73.5481 124.223 73.2552 124.809 72.8368 125.604C72.4603 126.399 71.7908 127.361 70.954 128.407C72 128.24 72.9205 127.863 73.7573 127.361C74.6778 126.901 75.4728 126.273 76.1423 125.604ZM60.5774 124.265V124.223C60.2845 124.39 59.8243 124.599 59.364 124.809C58.8619 125.018 58.318 125.269 57.8159 125.604C58.1088 125.855 58.4017 126.106 58.6527 126.273C58.9038 126.482 59.1967 126.65 59.4477 126.817C59.9079 127.11 60.4519 127.403 60.9958 127.654C61.5397 127.905 62.2092 128.156 63.046 128.407C62.7531 128.072 62.5439 127.654 62.3347 127.319C62.1255 126.984 61.8745 126.65 61.6653 126.315C61.4561 125.98 61.2887 125.604 61.1213 125.269C60.9121 124.934 60.7448 124.599 60.5774 124.265Z" fill="white"/>
<defs>
<filter id="filter0_d" x="0" y="0" width="219" height="195" filterUnits="userSpaceOnUse" color-interpolation-filters="sRGB">
<feFlood flood-opacity="0" result="BackgroundImageFix"/>
<feColorMatrix in="SourceAlpha" type="matrix" values="0 0 0 0 0 0 0 0 0 0 0 0 0 0 0 0 0 0 127 0"/>
<feOffset dy="10"/>
<feGaussianBlur stdDeviation="17.5"/>
<feColorMatrix type="matrix" values="0 0 0 0 0.290196 0 0 0 0 0.501961 0 0 0 0 0.941176 0 0 0 0.2 0"/>
<feBlend mode="normal" in2="BackgroundImageFix" result="effect1_dropShadow"/>
<feBlend mode="normal" in="SourceGraphic" in2="effect1_dropShadow" result="shape"/>
</filter>
<linearGradient id="paint0_linear" x1="35" y1="150" x2="201.556" y2="56.1611" gradientUnits="userSpaceOnUse">
<stop stop-color="#441DFC"/>
<stop offset="1" stop-color="#4E81EB"/>
</linearGradient>
<linearGradient id="paint1_linear" x1="177" y1="30" x2="38.5" y2="150" gradientUnits="userSpaceOnUse">
<stop offset="0.0365707" stop-color="#F9B50F"/>
<stop offset="1" stop-color="#8A6508"/>
</linearGradient>
</defs>
</svg>
