<svg xmlns="http://www.w3.org/2000/svg" width="42" height="42"  xmlns:v="https://vecta.io/nano"><defs><linearGradient id="A" x1="7.242" x2="100.632" y1="1018.014" y2="1108.685" gradientUnits="userSpaceOnUse"><stop offset="0" stop-color="#24f3d2"/><stop offset=".394" stop-color="#0674f0"/><stop offset=".507" stop-color="#6961b5"/><stop offset=".813" stop-color="#f34660"/><stop offset="1" stop-color="#ee078d"/></linearGradient></defs><g transform="translate(0 -1010.362)"><rect width="42" height="42" y="1010.362" fill="url(#A)" rx="8.876"/><path fill="#fff" d="M26 1018.362a2.51 2.51 0 0 0-2.5 2.5 2.49 2.49 0 0 0 .75 1.777l-2.307 3.846a3.97 3.97 0 0 0-.943-.123c-1.197 0-2.262.541-2.996 1.379l-.504-.379-.6.801.543.408c-.274.541-.443 1.144-.443 1.791 0 .641.166 1.237.436 1.775l-5.693 3.795c-.493-.355-1.091-.57-1.742-.57a3.01 3.01 0 0 0-3 3 3.01 3.01 0 0 0 3 3 3.01 3.01 0 0 0 3-3 2.98 2.98 0 0 0-.539-1.707l5.531-3.687c.734.846 1.804 1.395 3.008 1.395.644 0 1.245-.169 1.785-.441l.389.547.814-.582-.375-.521c.842-.734 1.387-1.801 1.387-3.002 0-.021-.006-.04-.006-.061l6.338-.846a2 2 0 0 0 1.668.906 2.01 2.01 0 0 0 2-2 2.01 2.01 0 0 0-2-2 2.01 2.01 0 0 0-2 2c0 .044.011.085.014.129l-6.172.822c-.292-1.062-1.005-1.941-1.955-2.455l2.205-3.674a2.47 2.47 0 0 0 .908.178 2.51 2.51 0 0 0 2.5-2.5 2.51 2.51 0 0 0-2.5-2.5zm0 1a1.49 1.49 0 1 1 0 3 1.49 1.49 0 1 1 0-3zm-13 3a2.01 2.01 0 0 0-2 2 2.01 2.01 0 0 0 2 2c.395 0 .761-.12 1.072-.32l.428.32.6-.799-.348-.262c.153-.282.248-.599.248-.939a2.01 2.01 0 0 0-2-2zm0 1a.99.99 0 1 1 0 2 .99.99 0 1 1 0-2zm2.9 2.801l-.6.801.799.6.6-.801-.799-.6zm5.1 1.199c1.663 0 3 1.337 3 3s-1.337 3-3 3-3-1.337-3-3 1.337-3 3-3zm12 0a.99.99 0 1 1 0 2 .99.99 0 1 1 0-2zm-8.43 7.338l-.814.582.58.813.814-.58-.58-.814zm1.162 1.627l-.814.582.582.813.813-.58-.58-.814zm-15.732.035a1.99 1.99 0 1 1 0 4 1.99 1.99 0 1 1 0-4zm16.895 1.592l-.814.582.582.814.813-.582-.58-.814zm2.605 1.408a2.47 2.47 0 0 0-1.324.389l-.119-.168-.814.58.203.283a2.48 2.48 0 0 0-.445 1.416 2.51 2.51 0 0 0 2.5 2.5 2.51 2.51 0 0 0 2.5-2.5 2.51 2.51 0 0 0-2.5-2.5zm0 1a1.49 1.49 0 1 1 0 3 1.49 1.49 0 1 1 0-3z"/></g></svg>